<svg width="32" height="32" xmlns="http://www.w3.org/2000/svg">
 <title>account</title>

 <g>
  <title>Layer 1</title>
  <g id="svg_1" data-name="account">
   <path id="svg_2" d="m25.5,23l0,2a0.5,0.5 0 0 1 -1,0l0,-2a6.51,6.51 0 0 0 -6.5,-6.5l-4,0a6.51,6.51 0 0 0 -6.5,6.5l0,2a0.5,0.5 0 0 1 -1,0l0,-2a7.5,7.5 0 0 1 7.5,-7.5l4,0a7.5,7.5 0 0 1 7.5,7.5zm-13.44,-11.77l0,-0.79a3.94,3.94 0 0 1 7.88,0l0,0.79a3.94,3.94 0 0 1 -7.88,0zm1,0a2.94,2.94 0 1 0 5.88,0l0,-0.79a2.94,2.94 0 0 0 -5.88,0l0,0.79z"/>
  </g>
 </g>
</svg>