<svg width="64" height="64" xmlns="http://www.w3.org/2000/svg" xml:space="preserve" version="1.1">

 <g>
  <title>Layer 1</title>
  <g id="svg_1">
   <circle id="svg_2" r="2" cy="56" cx="23"/>
   <circle id="svg_3" r="2" cy="56" cx="43"/>
   <path id="svg_4" d="m46,47l-23,0c-1.6,0 -2,-1.1 -2,-2c0,-1.1 -0.9,-2 -2,-2c-1.1,0 -2,0.9 -2,2c0,2.4 1.6,6 6,6l23,0c1.1,0 2,-0.9 2,-2s-0.9,-2 -2,-2z"/>
   <path id="svg_5" d="m63,17c0,-6.6 -5.4,-12 -12,-12c-5.6,0 -10.3,3.8 -11.6,9l-23.4,0c0,0 -0.1,0 -0.1,0l-0.3,-2.3c-0.5,-3.8 -3.7,-6.7 -7.6,-6.7c-1.1,0 -2,0.9 -2,2s0.9,2 2,2c1.8,0 3.4,1.4 3.7,3.2l3.4,26c0.1,1 1,1.7 2,1.7l32,0c1,0 1.8,-0.7 2,-1.7l1.3,-9.3c5.9,-0.6 10.6,-5.7 10.6,-11.9zm-44.2,19l-2.3,-18l22.6,0c0.4,5.2 4.2,9.5 9.2,10.7l-1,7.3l-28.5,0zm32.2,-11c-4.4,0 -8,-3.6 -8,-8s3.6,-8 8,-8s8,3.6 8,8s-3.6,8 -8,8z"/>
   <path id="svg_6" d="m54,15l-1,0l0,-1c0,-1.1 -0.9,-2 -2,-2s-2,0.9 -2,2l0,1l-1,0c-1.1,0 -2,0.9 -2,2s0.9,2 2,2l1,0l0,1c0,1.1 0.9,2 2,2s2,-0.9 2,-2l0,-1l1,0c1.1,0 2,-0.9 2,-2s-0.9,-2 -2,-2z"/>
  </g>
 </g>
</svg>